# xmcd CD database file
#
# Track frame offsets:
#	150
#	12782
#	26820
#	39565
#	48967
#	59640
#	69652
#	82330
#	94995
#	110545
#	122182
#	134497
#	146785
#	159830
#	171337
#	183615
#	195897
#	207832
#	218340
#	231702
#	252090
#	265597
#	287175
#	301265
#	319900
#	331480
#
# Disc length: 4635 seconds
#
# Revision: 2
# Processed by: cddbd v1.5.2PL0 Copyright (c) Steve Scherf et al.
# Submitted via: CDex 1.51
#
DISCID=8b12191a
DTITLE=Merle Haggard - HAG - The Best Of Merle Haggard
DYEAR=2006
DGENRE=Country
TTITLE0=The Bottle Let Me Down
TTITLE1=Branded Man
TTITLE2=Sing Me Back Home
TTITLE3=The Legend Of Bonnie And Clyde
TTITLE4=Today I Started Loving You Again
TTITLE5=Mama Tried
TTITLE6=I Take A Lot Of Pride In What I Am
TTITLE7=I'm Bringing Home Good News
TTITLE8=Hungry Eyes
TTITLE9=Workin' Man Blues
TTITLE10=Silver Wings
TTITLE11=Okie From Muskogee
TTITLE12=The Fightin' Side Of Me
TTITLE13=Someday We'll Look Back
TTITLE14=If We Make It Through December
TTITLE15=Things Aren't Funny Anymore
TTITLE16=Honky Tonk Night Time Man
TTITLE17=Old Man From The Mountain
TTITLE18=Living With The Shades Pulled Down
TTITLE19=I Think I'll Just Stay Here And Drink
TTITLE20=Big City
TTITLE21=Pancho And Lefty (with Willie Nelson)
TTITLE22=I'm Leaving Now (with Johnny Cash)
TTITLE23=Runaway Mama
TTITLE24=That's The News
TTITLE25=She Ain't Hooked On Me No More (with Toby Keith)
EXTD=MERLE HAGGARD - HAG THE BEST OF MERLE HAGGARD\n\nCapitol - EMI\n09463 6270425 YEAR: 2006
EXTT0=
EXTT1=
EXTT2=
EXTT3=
EXTT4=
EXTT5=
EXTT6=
EXTT7=
EXTT8=
EXTT9=
EXTT10=
EXTT11=
EXTT12=
EXTT13=
EXTT14=
EXTT15=
EXTT16=
EXTT17=
EXTT18=
EXTT19=
EXTT20=
EXTT21=
EXTT22=
EXTT23=
EXTT24=
EXTT25=
PLAYORDER=
